<svg width="144" height="28" viewBox="0 0 144 28" fill="none" xmlns="http://www.w3.org/2000/svg">
<path d="M14.566 3.702V7.398H4.765V13.635H12.619V17.199H4.765V27H0.112V3.702H14.566ZM23.3507 23.436H31.1717V27H18.6977V3.702H23.3507V23.436ZM39.5839 7.398V13.437H47.8339V17.001H39.5839V23.271H48.8239V27H34.9309V3.702H48.8239V7.398H39.5839ZM66.9538 27L61.7068 19.047L57.0538 27H51.7408L59.0668 15.087L51.5428 3.702H57.0538L62.2018 11.49L66.7888 3.702H72.1018L64.8088 15.417L72.4648 27H66.9538Z" fill="#00A0FF"/>
<path d="M80.6225 2.58V27H75.9695V2.58H80.6225ZM85.2938 3.471C85.2938 2.723 85.5578 2.118 86.0858 1.656C86.6138 1.172 87.3068 0.929999 88.1648 0.929999C89.0228 0.929999 89.7158 1.172 90.2438 1.656C90.7718 2.118 91.0358 2.723 91.0358 3.471C91.0358 4.197 90.7718 4.802 90.2438 5.286C89.7158 5.748 89.0228 5.979 88.1648 5.979C87.3068 5.979 86.6138 5.748 86.0858 5.286C85.5578 4.802 85.2938 4.197 85.2938 3.471ZM90.4748 8.718V27H85.8218V8.718H90.4748ZM101.977 8.487C104.199 8.487 105.981 9.048 107.323 10.17C108.665 11.292 109.501 12.788 109.831 14.658H105.475C105.299 13.778 104.903 13.074 104.287 12.546C103.671 12.018 102.868 11.754 101.878 11.754C101.086 11.754 100.47 11.941 100.03 12.315C99.5901 12.689 99.3701 13.195 99.3701 13.833C99.3701 14.339 99.5461 14.746 99.8981 15.054C100.25 15.362 100.69 15.604 101.218 15.78C101.746 15.956 102.505 16.165 103.495 16.407C104.881 16.715 106.003 17.045 106.861 17.397C107.741 17.727 108.489 18.266 109.105 19.014C109.743 19.74 110.062 20.73 110.062 21.984C110.062 23.546 109.446 24.811 108.214 25.779C107.004 26.747 105.365 27.231 103.297 27.231C100.921 27.231 99.0181 26.703 97.5881 25.647C96.1581 24.569 95.2891 23.04 94.9811 21.06H99.4361C99.5461 21.962 99.9421 22.677 100.624 23.205C101.306 23.711 102.197 23.964 103.297 23.964C104.089 23.964 104.694 23.777 105.112 23.403C105.53 23.007 105.739 22.501 105.739 21.885C105.739 21.357 105.552 20.928 105.178 20.598C104.826 20.268 104.375 20.015 103.825 19.839C103.297 19.663 102.538 19.454 101.548 19.212C100.184 18.904 99.0731 18.596 98.2151 18.288C97.3791 17.958 96.6531 17.441 96.0371 16.737C95.4431 16.033 95.1461 15.065 95.1461 13.833C95.1461 12.249 95.7511 10.962 96.9611 9.972C98.1711 8.982 99.8431 8.487 101.977 8.487ZM124.286 23.007V27H121.844C119.798 27 118.225 26.505 117.125 25.515C116.047 24.525 115.508 22.875 115.508 20.565V12.645H112.967V8.718H115.508V4.197H120.161V8.718H124.253V12.645H120.161V20.631C120.161 21.511 120.337 22.127 120.689 22.479C121.041 22.831 121.635 23.007 122.471 23.007H124.286ZM134.927 8.487C137.149 8.487 138.931 9.048 140.273 10.17C141.615 11.292 142.451 12.788 142.781 14.658H138.425C138.249 13.778 137.853 13.074 137.237 12.546C136.621 12.018 135.818 11.754 134.828 11.754C134.036 11.754 133.42 11.941 132.98 12.315C132.54 12.689 132.32 13.195 132.32 13.833C132.32 14.339 132.496 14.746 132.848 15.054C133.2 15.362 133.64 15.604 134.168 15.78C134.696 15.956 135.455 16.165 136.445 16.407C137.831 16.715 138.953 17.045 139.811 17.397C140.691 17.727 141.439 18.266 142.055 19.014C142.693 19.74 143.012 20.73 143.012 21.984C143.012 23.546 142.396 24.811 141.164 25.779C139.954 26.747 138.315 27.231 136.247 27.231C133.871 27.231 131.968 26.703 130.538 25.647C129.108 24.569 128.239 23.04 127.931 21.06H132.386C132.496 21.962 132.892 22.677 133.574 23.205C134.256 23.711 135.147 23.964 136.247 23.964C137.039 23.964 137.644 23.777 138.062 23.403C138.48 23.007 138.689 22.501 138.689 21.885C138.689 21.357 138.502 20.928 138.128 20.598C137.776 20.268 137.325 20.015 136.775 19.839C136.247 19.663 135.488 19.454 134.498 19.212C133.134 18.904 132.023 18.596 131.165 18.288C130.329 17.958 129.603 17.441 128.987 16.737C128.393 16.033 128.096 15.065 128.096 13.833C128.096 12.249 128.701 10.962 129.911 9.972C131.121 8.982 132.793 8.487 134.927 8.487Z" fill="#27333F"/>
</svg>
